<svg width="67" height="32" viewBox="0 0 67 32" fill="none" xmlns="http://www.w3.org/2000/svg">
<path d="M25.792 10.464V12.064H29.376V10.464H25.792ZM25.792 13.168V14.768H29.376V13.168H25.792ZM28.912 8.608V16.208H31.04V8.608H28.912ZM21.248 16.784V18.416H28.928V19.216H21.264V22.624H23.376V20.752H31.04V16.784H21.248ZM21.264 21.616V23.264H31.456V21.616H21.264ZM19.264 9.216V15.808H26.272V9.216H24.192V10.944H21.376V9.216H19.264ZM21.376 12.544H24.192V14.144H21.376V12.544ZM42.8948 8.608V16H45.0228V8.608H42.8948ZM44.1588 11.44V13.184H46.9748V11.44H44.1588ZM33.7908 9.296V15.456H40.8468V9.296H33.7908ZM38.7508 10.96V13.792H35.8868V10.96H38.7508ZM35.2308 16.592V18.224H42.9268V19.12H35.2628V22.416H37.3748V20.656H45.0228V16.592H35.2308ZM35.2628 21.6V23.264H45.4548V21.6H35.2628ZM51.0341 20.4091L50.9716 21.0341C50.9223 21.5341 50.8277 22.0322 50.6875 22.5284C50.5511 23.0284 50.4072 23.4811 50.2557 23.8864C50.108 24.2917 49.9886 24.6098 49.8977 24.8409H48.3295C48.3864 24.6174 48.464 24.3049 48.5625 23.9034C48.661 23.5057 48.7538 23.0587 48.8409 22.5625C48.928 22.0663 48.983 21.5606 49.0057 21.0455L49.0341 20.4091H51.0341ZM52.9213 15.344V17.04H66.3293V15.344H52.9213ZM55.7373 8.912V9.552C55.7373 10.912 54.9533 12.336 53.0173 12.944L54.0093 14.496C56.3773 13.712 57.3373 11.712 57.3373 9.552V8.912H55.7373ZM56.2653 8.912V9.552C56.2653 11.632 57.1293 13.856 59.6093 14.704L60.4093 13.056C58.5853 12.336 57.8493 10.88 57.8493 9.552V8.912H56.2653ZM61.3693 8.912V9.552C61.3693 10.896 60.6333 12.352 58.8093 13.056L59.6093 14.704C62.0893 13.872 62.9693 11.664 62.9693 9.552V8.912H61.3693ZM61.8973 8.912V9.552C61.8973 11.776 62.8573 13.728 65.2413 14.496L66.2173 12.944C64.2813 12.352 63.5133 10.96 63.5133 9.552V8.912H61.8973ZM54.4733 18.096V23.264H64.7133V18.096H54.4733ZM62.6333 19.776V21.584H56.5693V19.776H62.6333Z" fill="#FAA500"/>
<g clip-path="url(#clip0_1122_10658)">
<path d="M7.74465 8.94819L8.19887 10.7122C8.42409 11.6166 8.8726 12.4541 9.50569 13.1525C10.1388 13.8509 10.9374 14.3893 11.8327 14.7211L12.1643 14.8401C12.4083 14.9291 12.6185 15.0882 12.767 15.2963C12.9154 15.5043 12.9949 15.7514 12.9949 16.0044C12.9949 16.2575 12.9154 16.5045 12.767 16.7126C12.6185 16.9206 12.4083 17.0797 12.1643 17.1687L11.8327 17.2922C10.938 17.6235 10.1397 18.1612 9.50661 18.8588C8.87356 19.5564 8.42475 20.3931 8.19887 21.2966L7.74465 23.0606C7.67676 23.3314 7.51718 23.5722 7.29149 23.7444C7.0658 23.9166 6.78709 24.0102 6.50006 24.0102C6.21303 24.0102 5.93432 23.9166 5.70863 23.7444C5.48294 23.5722 5.32336 23.3314 5.25548 23.0606L4.80125 21.2966C4.57538 20.3931 4.12657 19.5564 3.49351 18.8588C2.86046 18.1612 2.06216 17.6235 1.16743 17.2922L0.840384 17.1687C0.59637 17.0797 0.386117 16.9206 0.2377 16.7126C0.089283 16.5045 0.00976563 16.2575 0.00976562 16.0044C0.00976562 15.7514 0.089283 15.5043 0.2377 15.2963C0.386117 15.0882 0.59637 14.9291 0.840384 14.8401L1.16743 14.7211C2.06269 14.3893 2.86134 13.8509 3.49443 13.1525C4.12752 12.4541 4.57603 11.6166 4.80125 10.7122L5.25548 8.94819C5.32336 8.67742 5.48294 8.43663 5.70863 8.26444C5.93432 8.09226 6.21303 7.99866 6.50006 7.99866C6.78709 7.99866 7.0658 8.09226 7.29149 8.26444C7.51718 8.43663 7.67676 8.67742 7.74465 8.94819V8.94819Z" fill="#FAA500"/>
</g>
<defs>
<clipPath id="clip0_1122_10658">
<rect width="13" height="16" fill="white" transform="translate(0 8)"/>
</clipPath>
</defs>
</svg>